<svg width="28" height="21" viewBox="0 0 28 21" fill="none" xmlns="http://www.w3.org/2000/svg">
<path d="M2.70348 18.2966L0 15.5932V10.4967V5.40017L2.70011 2.70008L5.40022 0L8.10708 2.70683L10.8139 5.41367V6.84136V8.26906H9.53813H8.26233V7.35437V6.43969L6.83803 5.01543L5.41372 3.59117L3.98941 5.01543L2.5651 6.43969V10.5912V14.7426L3.98606 16.1635L5.40702 17.5844L6.83467 16.1567L8.26233 14.729V13.8414V12.9537H9.53813H10.8139L10.8117 14.2802L10.8095 15.6066L8.10822 18.3033L5.40696 21L2.70348 18.2966ZM4.35727 14.6042L3.33463 13.5815V10.6518V7.72222L4.36068 6.69624L5.38672 5.67027L6.41276 6.69624L7.4388 7.72222V10.6519V13.5816L6.4161 14.6042C5.85362 15.1667 5.39036 15.6269 5.38665 15.6269C5.38294 15.6269 4.91972 15.1666 4.35727 14.6042Z" fill="currentColor"/>
<path d="M15.6016 7.72266L18.0039 10.125C18.1719 9.86719 18.2559 9.58594 18.2559 9.28125C18.2559 8.85156 18.1016 8.48438 17.793 8.17969C17.4883 7.875 17.1211 7.72266 16.6914 7.72266H15.6016ZM16.0176 11.959H14.8516V14.4375C14.8516 14.5938 14.7969 14.7266 14.6875 14.8359C14.5781 14.9453 14.4453 15 14.2891 15C14.1328 15 14 14.9453 13.8906 14.8359C13.7812 14.7266 13.7266 14.5938 13.7266 14.4375V11.4023C13.7266 11.2461 13.7812 11.1133 13.8906 11.0039C14 10.8945 14.1328 10.8398 14.2891 10.8398H14.8984L13.8496 9.79102C13.7402 9.68164 13.6855 9.54883 13.6855 9.39258C13.6855 9.24023 13.7402 9.10938 13.8496 9C13.959 8.89062 14.0918 8.83594 14.248 8.83594C14.4004 8.83594 14.5312 8.89062 14.6406 9L16.4805 10.8398H16.6914C16.8242 10.8398 16.9551 10.8242 17.084 10.793L13.8496 7.55859C13.7363 7.44141 13.6797 7.31641 13.6797 7.18359C13.6797 7.10547 13.6973 7.02539 13.7324 6.94336C13.8262 6.71289 13.998 6.59766 14.248 6.59766H16.6914C17.4297 6.59766 18.0625 6.86133 18.5898 7.38867C19.1133 7.91211 19.375 8.54297 19.375 9.28125C19.375 10.0195 19.1133 10.6504 18.5898 11.1738C18.2617 11.498 17.8945 11.7227 17.4883 11.8477L19.6855 14.0449C19.7949 14.1543 19.8496 14.2852 19.8496 14.4375C19.8496 14.5938 19.7949 14.7266 19.6855 14.8359C19.5762 14.9453 19.4453 15 19.293 15C19.1367 15 19.0039 14.9453 18.8945 14.8359L16.0176 11.959ZM24.584 10.8457L21.291 7.55859C21.1777 7.44141 21.1211 7.31641 21.1211 7.18359C21.1211 7.10547 21.1387 7.02539 21.1738 6.94336C21.2676 6.71289 21.4395 6.59766 21.6895 6.59766H26.5645C26.7207 6.59766 26.8535 6.65234 26.9629 6.76172C27.0723 6.87109 27.127 7.00391 27.127 7.16016C27.127 7.31641 27.0723 7.44922 26.9629 7.55859C26.8535 7.66797 26.7207 7.72266 26.5645 7.72266H23.043L26.3301 11.0098C26.4395 11.1191 26.4941 11.252 26.4941 11.4082C26.4941 11.5605 26.4395 11.6914 26.3301 11.8008C26.2207 11.9102 26.0898 11.9648 25.9375 11.9648H22.498V13.8809H26.5645C26.7207 13.8809 26.8535 13.9355 26.9629 14.0449C27.0723 14.1543 27.127 14.2852 27.127 14.4375C27.127 14.5938 27.0723 14.7266 26.9629 14.8359C26.8535 14.9453 26.7207 15 26.5645 15H21.9355C21.7832 15 21.6523 14.9453 21.543 14.8359C21.4336 14.7266 21.3789 14.5938 21.3789 14.4375V11.4082C21.3789 11.252 21.4336 11.1191 21.543 11.0098C21.6523 10.9004 21.7832 10.8457 21.9355 10.8457H22.3398L21.2852 9.79102C21.1758 9.68164 21.1211 9.54883 21.1211 9.39258C21.1211 9.24023 21.1758 9.10938 21.2852 9C21.3945 8.89062 21.5273 8.83594 21.6836 8.83594C21.8359 8.83594 21.9668 8.89062 22.0762 9L23.9219 10.8457H24.584Z" fill="currentColor"/>
</svg>
