<?xml version="1.0" encoding="UTF-8" standalone="no"?>
<!-- Created with Inkscape (http://www.inkscape.org/) -->

<svg
   version="1.1"
   id="svg1"
   width="1198.6667"
   height="1200"
   viewBox="0 0 1198.6667 1200"
   xmlns="http://www.w3.org/2000/svg"
   xmlns:svg="http://www.w3.org/2000/svg">
  <defs
     id="defs1" />
  <g
     id="g1">
    <path
       style="fill:#000000;fill-opacity:1"
       d="M 448.83316,969.16854 315.33335,835.67372 V 584.0029 332.33208 L 448.6667,199 582.00004,65.667915 715.66672,199.33333 849.33339,332.99875 V 403.49938 474 h -63 -63.00001 V 428.83215 383.6643 l -70.33334,-70.33097 -70.33333,-70.33096 -70.33334,70.33096 -70.33334,70.33097 v 205.00237 205.00237 l 70.16785,70.16548 70.16785,70.16548 70.49883,-70.50117 70.49882,-70.50118 v -43.83216 -43.83216 h 63.00001 63 l -0.11007,65.5 -0.11007,65.5 L 715.7231,969.49834 582.33296,1102.6634 Z M 530.49839,786.8317 480.00003,736.33007 V 591.66339 446.99671 l 50.66667,-50.66338 50.66667,-50.66337 50.66667,50.66337 50.66667,50.66338 v 144.66996 144.66995 l -50.50163,50.49836 c -27.77591,27.77409 -50.65165,50.49835 -50.83499,50.49835 -0.18334,0 -23.0576,-22.72573 -50.8317,-50.50163 z"
       id="path1" />
  </g>
</svg>
